inDegrees=no
num_controls=7
num_derivatives=13
num_iterations=97
num_multipliers=7
num_parameters=0
num_slacks=7
num_states=26
objective=0.681383
objective_accelerations=0.019110
objective_balance=0.001445
objective_effort=0.011153
objective_height=0.439866
objective_ligament=0.209810
solver_duration=1446.287489
status=Solve_Succeeded
success=true
DataType=double
version=3
OpenSimVersion=4.5
endheader
time	/jointset/ground_pelvis/pelvis_tilt/value	/jointset/ground_pelvis/pelvis_tx/value	/jointset/ground_pelvis/pelvis_ty/value	/jointset/hip_l/hip_flexion_l/value	/jointset/hip_l/hip_adduction_l/value	/jointset/hip_l/hip_rotation_l/value	/jointset/back/lumbar_extension/value	/jointset/patellofemoral_l/patellar_flexion_l/value	/jointset/knee_l/knee_flexion_l/value	/jointset/knee_l/knee_adduction_l/value	/jointset/knee_l/knee_rotation_l/value	/jointset/ankle_l/ankle_angle_l/value	/jointset/subtalar_l/subtalar_angle_l/value	/jointset/ground_pelvis/pelvis_tilt/speed	/jointset/ground_pelvis/pelvis_tx/speed	/jointset/ground_pelvis/pelvis_ty/speed	/jointset/hip_l/hip_flexion_l/speed	/jointset/hip_l/hip_adduction_l/speed	/jointset/hip_l/hip_rotation_l/speed	/jointset/back/lumbar_extension/speed	/jointset/patellofemoral_l/patellar_flexion_l/speed	/jointset/knee_l/knee_flexion_l/speed	/jointset/knee_l/knee_adduction_l/speed	/jointset/knee_l/knee_rotation_l/speed	/jointset/ankle_l/ankle_angle_l/speed	/jointset/subtalar_l/subtalar_angle_l/speed	/forceset/tau_hip_flexion_l	/forceset/tau_hip_adduction_l	/forceset/tau_hip_rotation_l	/forceset/tau_knee_flexion_l	/forceset/tau_ankle_angle_l	/forceset/tau_subtalar_angle_l	/forceset/tau_lumbar_extension	lambda_cid13_p0	lambda_cid13_p1	lambda_cid13_p2	lambda_cid13_p3	lambda_cid13_p4	lambda_cid13_p5	lambda_cid14_p0	/jointset/ground_pelvis/pelvis_tilt/accel	/jointset/ground_pelvis/pelvis_tx/accel	/jointset/ground_pelvis/pelvis_ty/accel	/jointset/hip_l/hip_flexion_l/accel	/jointset/hip_l/hip_adduction_l/accel	/jointset/hip_l/hip_rotation_l/accel	/jointset/back/lumbar_extension/accel	/jointset/patellofemoral_l/patellar_flexion_l/accel	/jointset/knee_l/knee_flexion_l/accel	/jointset/knee_l/knee_adduction_l/accel	/jointset/knee_l/knee_rotation_l/accel	/jointset/ankle_l/ankle_angle_l/accel	/jointset/subtalar_l/subtalar_angle_l/accel	gamma_cid13_p0	gamma_cid13_p1	gamma_cid13_p2	gamma_cid13_p3	gamma_cid13_p4	gamma_cid13_p5	gamma_cid14_p0
0	0.0883709705761252	0.08828892116918333	0.910624656528783	0.1266922784136757	-0.2823653087540834	-0.2806519745878423	-0.2144969558742783	0.2051545070142041	0.2051545070141877	0.009042183789515851	-0.1731765091723838	0.09024313228550125	0.1763465404734677	0	0	0	0	0	0	0	0	0	0	0	0	0	0.14089178243814	-0.02860152571601089	0.002001209134693364	-0.2735219104065703	0.2139630742265483	-0.05727596464491979	-0.06425886559997415	35.86082756052323	24.37925941287947	-10.77362662749663	-9.557442786707577	-458.9089228807737	-55.50309974038243	-25.60753125166407	-4.279015422029418	-1.302810978965554	-0.529804679275147	8.193665948715525	-0.06877940290836276	0.9770365639022642	-3.733130443177493	3.013172455428917	3.013172455428327	0.7128033632893679	-0.117803883318649	-0.6966073757073463	-0.3564747280811696	-1.908033252061548e-09	5.886939420632917e-09	-1.810853450921649e-08	1.22516293152683e-08	1.126256324491021e-08	7.437090218423815e-09	3.52045530074493e-09
0.01	0.08816419995694892	0.08822432588912725	0.9105988272091337	0.1270916605666576	-0.2823689753386995	-0.2806030222617613	-0.2146842854852893	0.2053025493857136	0.2053025493857011	0.009076489417228308	-0.1731815728853696	0.09020842209158032	0.1763285061862518	-0.04100741994156658	-0.01288419469060922	-0.005148140545181707	0.07943788971624359	-0.0008080905546525824	0.009806799382138876	-0.03717193455700787	0.02962957628239063	0.02962957628239004	0.006712540455406971	-0.001022623483511003	-0.006866864495286118	-0.003661926871797241	0.1350468894035549	-0.04093495597781916	0.00182205453024545	-0.2643186619069117	0.1973436586615528	-0.04225039767819518	-0.05990626989079762	31.86779368450426	17.83483679304249	-8.910172239851986	-7.54693503976588	-458.458386983957	-67.9099375019703	-25.60776154153826	-3.959598137607644	-1.275992068244183	-0.5046579818721906	7.753070840835123	-0.0980392706977022	0.9849551179700494	-3.665126813691642	2.941014807836606	2.941014807836805	0.6281912008274984	-0.0959770844206826	-0.6704501515935042	-0.3793107726474804	1.144991131050244e-09	-4.268099689685792e-10	-1.319773827577985e-08	2.614111337999376e-09	-1.991609669722874e-08	-5.351401360774928e-09	3.722737580835527e-09
0.02	0.08755775656683808	0.08803193499133499	0.9105220486360862	0.1282722656883217	-0.2823829659066593	-0.2804555112433526	-0.2152345148122232	0.2057475204386934	0.2057475204387004	0.009173462812319013	-0.173197159933916	0.09010729841966779	0.176272200809134	-0.07993455417852446	-0.02555912354723806	-0.0101898506796245	0.1562445937427101	-0.002064796667499417	0.01971173846830252	-0.07257994318306518	0.05938573629248155	0.05938573629248361	0.01253355347726236	-0.002104667109155297	-0.01328269559675463	-0.007654217980340551	0.1292019963690597	-0.05326838623951406	0.001642899925702446	-0.255115413407175	0.1807242430966389	-0.02722483071131137	-0.05555367418161808	27.88814934011607	11.29015644351061	-7.049059809282387	-5.481658443139164	-457.7271140431064	-80.24914578630269	-25.6084783293811	-3.862958281106748	-1.260957812170392	-0.5085185971273446	7.667428810760322	-0.1585025145472291	0.9966645047073668	-3.380345256986892	3.03848920096909	3.03848920096915	0.5344978765790023	-0.129687911745397	-0.6064006969448746	-0.4225475754308042	4.198015514162037e-09	-6.740559358570076e-09	-8.286942042343203e-09	-7.023406639269546e-09	-5.109475663936768e-08	-1.813989293997367e-08	3.925019860926125e-09
0.03	0.08656961900256313	0.08771400956089409	0.9103953367733508	0.130209206818216	-0.282411182875198	-0.2802090914444023	-0.2161300486759072	0.2064878932030983	0.2064878932030725	0.009324463609849301	-0.1732235946144425	0.08994290570132725	0.1761744639377332	-0.1176059819446003	-0.03797323484976498	-0.01513694261826336	0.230819702259606	-0.003588086326241955	0.02954750287125581	-0.1062593350401349	0.08842584655373775	0.08842584655374064	0.01755628706561372	-0.003138147077334498	-0.01965441818981141	-0.01192527782456186	0.1264170726816456	-0.0479253504232469	0.001499204574028604	-0.2520668689366286	0.1789241493817492	-0.03045247516913284	-0.05333597756321653	27.06635188629281	12.71763916193188	-7.14165661382819	-5.146003645536771	-457.6726792064482	-76.65120216131227	-25.6097103644937	-3.706187947444387	-1.223730081666881	-0.4854779497291803	7.303962410322044	-0.1506653626220906	0.9733260384715496	-3.321611971655783	2.797325648197649	2.79732564819757	0.4696123447861287	-0.08356115869678345	-0.6613425751514852	-0.4342014501701912	2.655078081434748e-09	-1.831181035378818e-08	-6.023464343543124e-09	-5.211439120382012e-09	-8.264884131510741e-08	-2.442441223071186e-08	3.514650161544984e-09
0.04	0.08520737657597034	0.08727352455895063	0.9102196192997295	0.1328821811408978	-0.282454917374543	-0.2798650552753538	-0.2173543516224841	0.2075107778120004	0.2075107778120052	0.009522381992205545	-0.1732590407185435	0.08971303885011953	0.1760330532156396	-0.1547555266340117	-0.05007103784775092	-0.01999097285682746	0.3034512323031995	-0.005168302828374982	0.0392350124895055	-0.1383337597606421	0.1158881051947425	0.115888105194742	0.02191707044688149	-0.003906951819213882	-0.02637752216949941	-0.01638898811888693	0.1236321489944503	-0.04258231460693353	0.001355509222507607	-0.2490183244659754	0.1771240556669111	-0.03368011962688525	-0.05111828094467593	26.25752135957686	14.14383910499943	-7.235176627661481	-4.761811611067009	-457.3601663186851	-72.9932360044605	-25.61131071144071	-3.758581665772973	-1.197696151263065	-0.4899062571123726	7.278713116100044	-0.1698878832253294	0.9670135477667942	-3.059351829673893	2.722918876918922	2.722918876918134	0.4021078351622612	-0.0767528664855084	-0.676676974272115	-0.4610776654519437	1.017378549411807e-09	-2.999146344396746e-08	-3.81457053205514e-09	-3.163399735594343e-09	-1.142106667070039e-07	-3.057482900003849e-08	3.091648462587106e-09
0.05	0.08347696980463065	0.08671366234199264	0.9099957256020534	0.1362717340211853	-0.2825149518687651	-0.2794250909613626	-0.2188911473671373	0.2088018441725128	0.2088018441724974	0.00976065729287442	-0.1733014410614753	0.08941497848719399	0.1758461154131277	-0.191137403926065	-0.06184532802507416	-0.02477863861453612	0.3740897430118291	-0.006865567561328603	0.04873932623032314	-0.1687640607212872	0.1421901712763644	0.1421901712763686	0.02563321100499823	-0.004554978800968377	-0.03321676253794319	-0.02102056708469148	0.1194122613341547	-0.0411947108891619	0.001192603846229955	-0.244086469783997	0.1717376276901827	-0.03251677552785783	-0.04791545125553598	24.7027769299826	13.64489926698871	-6.851883019728938	-4.146137294717844	-456.7042542427951	-73.04662244893355	-25.61313701937492	-3.549725038007434	-1.158884441590597	-0.4718506226539844	6.900980690132805	-0.1736868739936722	0.9393611492609197	-2.995669960654493	2.563600514507927	2.563600514509038	0.3406452186555655	-0.05610676777836361	-0.6848792792538139	-0.4674919947255234	1.550555839539872e-09	-4.150932025813286e-08	-9.319986660596529e-10	-5.699154170618816e-09	-1.373797363267863e-07	-3.798182999108106e-08	2.430974884036344e-09
0.06	0.08138839740491444	0.08603773942513414	0.9097242244692895	0.1403565841369185	-0.2825927672314528	-0.278890639337566	-0.2207244062676805	0.210351881201984	0.2103518812019877	0.01003294960961721	-0.1733497775049904	0.0890490593783554	0.1756122030244416	-0.2263886523014469	-0.0732831778278584	-0.0295124598744073	0.4425106793959763	-0.008724476520831899	0.05813247445201491	-0.1976263909376113	0.1676822389869506	0.1676822389869621	0.02872047366388471	-0.00509417193303788	-0.03994927135133158	-0.02578390535373407	0.1151923736740432	-0.03980710717133603	0.001029698469993488	-0.2391546151019192	0.1663511997135116	-0.0313534314287487	-0.04471262156629178	23.15881446135748	13.14560984335258	-6.470290346932877	-3.484937411193634	-455.8244011806271	-73.04528083986999	-25.61505351144465	-3.532455882437902	-1.130408076356089	-0.4791373575448604	6.835198251203741	-0.2022167285352547	0.9447804439417673	-2.74575768080924	2.560919202711908	2.56091920271162	0.2763322553162079	-0.05498609654856926	-0.655330663261978	-0.4874295260999032	2.17513846954798e-09	-5.302036459751872e-08	1.978938591704569e-09	-8.427910450688009e-09	-1.601954267561639e-07	-4.544173979145903e-08	1.760294068450093e-09
